<svg width="70" height="68" viewBox="0 0 70 68" fill="none" xmlns="http://www.w3.org/2000/svg">
<path d="M69.596 10.9344L59.0671 0.40414C58.8085 0.145469 58.4575 0 58.0916 0C57.7258 0 57.3748 0.145332 57.1162 0.40414L50.6557 6.86451C46.5479 6.49387 42.5891 7.90344 39.7045 10.7894L35.6002 14.8937L29.2492 9.59383C29.2301 9.57783 29.2105 9.56238 29.1905 9.54748C25.117 6.50672 20.8156 6.34512 18.8627 6.46557L12.8853 0.488223C12.3465 -0.0504492 11.4732 -0.0507226 10.9344 0.488223L0.404141 11.0171C0.145332 11.2757 0 11.6267 0 11.9926C0 12.3584 0.145332 12.7094 0.404141 12.9682L6.86451 19.4285C6.49373 23.5364 7.90371 27.4952 10.7894 30.3811C10.7894 30.3811 21.0175 40.6053 21.0435 40.6279L21.7297 48.2284C21.7318 48.2531 21.7347 48.2778 21.7384 48.3023C22.4684 53.3351 25.3947 56.4897 26.8617 57.785V66.2387C26.8617 67.0006 27.4794 67.6183 28.2413 67.6183H29.4551C30.217 67.6183 30.8347 67.0006 30.8347 66.2387C30.8347 65.5328 30.3047 64.951 29.6209 64.8689V62.1678H41.7528V64.8591H41.6648C40.9028 64.8591 40.2851 65.4768 40.2851 66.2387C40.2851 67.0006 40.9028 67.6183 41.6648 67.6183H43.1323C43.8942 67.6183 44.5119 67.0006 44.5119 66.2387V57.1023C47.6789 54.4603 49.4811 50.6641 49.4811 46.5827V40.9258C49.5712 40.8669 60.4372 29.3096 60.4372 29.3096C60.4726 29.2719 60.5058 29.2322 60.5367 29.1908C63.5783 25.1162 63.7407 20.816 63.62 18.8629L69.5961 12.8856C70.1347 12.3465 70.1347 11.4732 69.596 10.9344ZM11.9097 3.41469L13.8123 5.31726L5.23373 13.8958L3.3306 11.9927L11.9097 3.41469ZM12.7404 28.43C10.3091 25.9987 9.19256 22.6029 9.67695 19.1133C9.73642 18.6851 9.59177 18.2537 9.28594 17.948L7.18471 15.8469L15.7633 7.26838L17.3671 8.87222C17.6668 9.17191 18.0872 9.31697 18.508 9.26639C19.6547 9.12775 23.6858 8.89834 27.5107 11.7369L33.4783 16.7167C33.0887 16.9304 32.7309 17.2156 32.4198 17.5677C32.2358 17.7744 31.6203 18.5235 31.3944 19.7344C30.9824 19.5925 30.5446 19.5181 30.0951 19.5181C27.9316 19.5181 26.1717 21.2491 26.1717 23.3768V30.8863C25.5612 30.8152 24.8844 30.8608 24.28 31.016C24.3026 31.009 24.2572 31.0217 24.28 31.016C24.1415 31.0592 23.9691 31.1179 23.8313 31.1716L19.7701 27.0741C19.2337 26.533 18.3602 26.529 17.8191 27.0654C17.278 27.6017 17.2741 28.4752 17.8103 29.0164L21.5525 32.7918C20.3681 34.5695 20.6568 36.3465 20.6568 36.3465L12.7404 28.43ZM46.7218 46.5825C46.7218 50.0213 45.1102 53.2119 42.3002 55.3362C41.9553 55.5969 41.7527 56.0044 41.7527 56.4367V59.4085H29.6208V57.1404C29.6208 56.7164 29.426 56.3161 29.0924 56.0547C28.1837 55.3425 25.1713 52.6568 24.4743 47.9422L23.3905 35.938C23.389 35.9211 23.3871 35.9041 23.3851 35.8872C23.2475 34.8112 23.8018 34.0657 25.0324 33.6709C25.4831 33.5624 25.8988 33.6119 26.1719 33.689V43.5739C26.1719 44.3358 26.7896 44.9535 27.5516 44.9535C28.3135 44.9535 28.9312 44.3358 28.9312 43.5739V23.3768C28.9312 21.9588 31.2585 21.9408 31.2585 23.3768V37.9976C31.2585 38.7632 31.908 39.3941 32.6719 39.3754C33.4359 39.3941 34.0853 38.7633 34.0853 37.9976V20.5183C34.0853 19.8509 34.5202 18.9857 35.296 19.024C36.0217 19.0597 36.4127 19.8789 36.4127 20.5183V37.9976C36.4127 38.7632 37.0621 39.3941 37.8261 39.3754C38.5901 39.3941 39.2395 38.7633 39.2395 37.9976V23.3768C39.2395 21.9588 41.5669 21.9408 41.5669 23.3768V37.9976C41.5669 39.3941 43.4961 39.8825 44.1608 38.6524C44.3077 38.4331 44.3937 38.1695 44.3937 37.8857V25.8296C44.3937 24.4312 46.7224 24.4141 46.7224 25.8296V46.5825H46.7218ZM60.8193 18.5082C60.9574 19.6513 61.1856 23.6626 58.3707 27.4794L49.481 36.9522V32.5809C49.5575 32.5309 54.0537 28.0931 54.0537 28.0931C54.5951 27.557 54.5994 26.6835 54.0634 26.1421C53.5274 25.6009 52.6539 25.5962 52.1124 26.1324L49.481 28.7376V25.8297C49.481 24.7964 49.0675 23.8265 48.3139 23.0955C47.5737 22.3819 46.5948 21.989 45.5575 21.989C45.0634 21.989 44.5908 22.0798 44.1548 22.2437C43.9681 21.6422 43.6321 21.0924 43.1661 20.6391C42.4278 19.9162 41.4467 19.5182 40.4034 19.5182C39.9478 19.5182 39.5105 19.5959 39.1033 19.7369C39.083 19.6185 39.0596 19.5009 39.03 19.3859C38.7744 18.3739 38.1876 17.5316 37.4188 16.977L41.6556 12.7403C44.0859 10.309 47.4813 9.19242 50.9707 9.67709C51.3987 9.73683 51.8302 9.59177 52.1359 9.28607L54.2375 7.18443L62.8167 15.7635L61.2131 17.3674C60.9137 17.6669 60.7685 18.0875 60.8193 18.5082ZM64.7676 13.8123L56.1888 5.23346L58.0915 3.33074L66.6697 11.91L64.7676 13.8123Z" fill="black"/>
<path d="M35.5292 67.6265C36.2843 67.6265 36.8964 67.0144 36.8964 66.2594C36.8964 65.5043 36.2843 64.8922 35.5292 64.8922C34.7742 64.8922 34.162 65.5043 34.162 66.2594C34.162 67.0144 34.7742 67.6265 35.5292 67.6265Z" fill="black"/>
</svg>
